<?xml version="1.0" encoding="UTF-8" standalone="no"?>
<svg
   xmlns:dc="http://purl.org/dc/elements/1.1/"
   xmlns:cc="http://creativecommons.org/ns#"
   xmlns:rdf="http://www.w3.org/1999/02/22-rdf-syntax-ns#"
   xmlns:svg="http://www.w3.org/2000/svg"
   xmlns="http://www.w3.org/2000/svg"
   xmlns:sodipodi="http://sodipodi.sourceforge.net/DTD/sodipodi-0.dtd"
   xmlns:inkscape="http://www.inkscape.org/namespaces/inkscape"
   version="1.1"
   x="0px"
   y="0px"
   viewBox="0 0 64 80"
   enable-background="new 0 0 64 64"
   xml:space="preserve"
   id="svg40"
   sodipodi:docname="blog.svg"
   inkscape:version="0.92.4 (5da689c313, 2019-01-14)"><metadata
     id="metadata46"><rdf:RDF><cc:Work
         rdf:about=""><dc:format>image/svg+xml</dc:format><dc:type
           rdf:resource="http://purl.org/dc/dcmitype/StillImage" /></cc:Work></rdf:RDF></metadata><defs
     id="defs44" /><sodipodi:namedview
     pagecolor="#ffffff"
     bordercolor="#666666"
     borderopacity="1"
     objecttolerance="10"
     gridtolerance="10"
     guidetolerance="10"
     inkscape:pageopacity="0"
     inkscape:pageshadow="2"
     inkscape:window-width="1366"
     inkscape:window-height="715"
     id="namedview42"
     showgrid="false"
     inkscape:zoom="2.95"
     inkscape:cx="32"
     inkscape:cy="40"
     inkscape:window-x="-8"
     inkscape:window-y="-8"
     inkscape:window-maximized="1"
     inkscape:current-layer="svg40" /><g
     id="g34"
     transform="translate(0.33898305,-2.7457627)"><path
       d="M 61,3.998 H 3 c -1.654,0 -3,1.346 -3,3 v 52.004 c 0,0.553 0.447,1 1,1 h 62 c 0.553,0 1,-0.447 1,-1 V 6.998 c 0,-1.654 -1.346,-3 -3,-3 z M 57.999,58.002 H 35.002 v -5.004 h 22.997 z m 1,-7.004 H 34.002 c -0.553,0 -1,0.447 -1,1 v 6.004 h -2.004 v -6.004 c 0,-0.553 -0.447,-1 -1,-1 H 5.001 c -0.553,0 -1,0.447 -1,1 v 6.004 H 2 V 9.998 h 60 v 48.004 h -2.001 v -6.004 c 0,-0.553 -0.447,-1 -1,-1 z M 28.998,58.002 H 6.001 V 52.998 H 28.998 Z M 3,5.998 h 1.02 c -0.552,0 -0.994,0.447 -0.994,1 0,0.553 0.452,1 1.005,1 0.552,0 1,-0.447 1,-1 0,-0.553 -0.448,-1 -1,-1 h 2.988 c -0.552,0 -0.994,0.447 -0.994,1 0,0.553 0.452,1 1.005,1 0.552,0 1,-0.447 1,-1 0,-0.553 -0.448,-1 -1,-1 h 2.992 c -0.552,0 -0.994,0.447 -0.994,1 0,0.553 0.452,1 1.005,1 0.552,0 1,-0.447 1,-1 0,-0.553 -0.448,-1 -1,-1 H 61 c 0.552,0 1,0.448 1,1 v 1 H 10.032 7.029 4.03 2 v -1 c 0,-0.552 0.448,-1 1,-1 z"
       id="path2"
       inkscape:connector-curvature="0" /><path
       d="M 29.998,17.999 H 5.001 c -0.553,0 -1,0.447 -1,1 v 19.999 c 0,0.553 0.447,1 1,1 h 24.997 c 0.553,0 1,-0.447 1,-1 V 18.999 c 0,-0.553 -0.447,-1 -1,-1 z m -1,19.999 H 6.001 V 19.999 h 22.997 z"
       id="path4"
       inkscape:connector-curvature="0" /><path
       d="M 29.998,40.999 H 5 c -0.553,0 -1,0.447 -1,1 0,0.553 0.447,1 1,1 h 24.998 c 0.553,0 1,-0.447 1,-1 0,-0.553 -0.447,-1 -1,-1 z"
       id="path6"
       inkscape:connector-curvature="0" /><path
       d="M 29.998,43.999 H 5 c -0.553,0 -1,0.447 -1,1 0,0.553 0.447,1 1,1 h 24.998 c 0.553,0 1,-0.447 1,-1 0,-0.553 -0.447,-1 -1,-1 z"
       id="path8"
       inkscape:connector-curvature="0" /><path
       d="M 17,46.999 H 5 c -0.553,0 -1,0.447 -1,1 0,0.553 0.447,1 1,1 h 12 c 0.553,0 1,-0.447 1,-1 0,-0.553 -0.447,-1 -1,-1 z"
       id="path10"
       inkscape:connector-curvature="0" /><path
       d="M 58.997,40.999 H 33.999 c -0.553,0 -1,0.447 -1,1 0,0.553 0.447,1 1,1 h 24.998 c 0.553,0 1,-0.447 1,-1 0,-0.553 -0.447,-1 -1,-1 z"
       id="path12"
       inkscape:connector-curvature="0" /><path
       d="M 58.997,43.999 H 33.999 c -0.553,0 -1,0.447 -1,1 0,0.553 0.447,1 1,1 h 24.998 c 0.553,0 1,-0.447 1,-1 0,-0.553 -0.447,-1 -1,-1 z"
       id="path14"
       inkscape:connector-curvature="0" /><path
       d="m 45.999,46.999 h -12 c -0.553,0 -1,0.447 -1,1 0,0.553 0.447,1 1,1 h 12 c 0.553,0 1,-0.447 1,-1 0,-0.553 -0.447,-1 -1,-1 z"
       id="path16"
       inkscape:connector-curvature="0" /><path
       d="M 29.998,10.998 H 5 c -0.553,0 -1,0.447 -1,1 0,0.553 0.447,1 1,1 h 24.998 c 0.553,0 1,-0.447 1,-1 0,-0.553 -0.447,-1 -1,-1 z"
       id="path18"
       inkscape:connector-curvature="0" /><path
       d="m 5,15.998 h 12 c 0.553,0 1,-0.447 1,-1 0,-0.553 -0.447,-1 -1,-1 H 5 c -0.553,0 -1,0.447 -1,1 0,0.553 0.447,1 1,1 z"
       id="path20"
       inkscape:connector-curvature="0" /><path
       d="m 33.999,12.998 h 24.998 c 0.553,0 1,-0.447 1,-1 0,-0.553 -0.447,-1 -1,-1 H 33.999 c -0.553,0 -1,0.447 -1,1 0,0.553 0.447,1 1,1 z"
       id="path22"
       inkscape:connector-curvature="0" /><path
       d="m 33.999,15.998 h 12 c 0.553,0 1,-0.447 1,-1 0,-0.553 -0.447,-1 -1,-1 h -12 c -0.553,0 -1,0.447 -1,1 0,0.553 0.447,1 1,1 z"
       id="path24"
       inkscape:connector-curvature="0" /><path
       d="m 15.507,32.869 c 0.153,0.087 0.323,0.13 0.493,0.13 0.178,0 0.356,-0.048 0.515,-0.143 l 5.002,-3.001 c 0.301,-0.181 0.485,-0.506 0.485,-0.857 0,-0.351 -0.185,-0.677 -0.485,-0.857 L 16.515,25.14 C 16.205,24.954 15.821,24.95 15.507,25.127 15.193,25.304 15,25.637 15,25.997 v 6.002 c 0,0.36 0.193,0.692 0.507,0.87 z M 17,27.764 19.059,28.998 17,30.232 Z"
       id="path26"
       inkscape:connector-curvature="0" /><path
       d="m 17.501,36.498 c 4.136,0 7.5,-3.364 7.5,-7.5 0,-4.136 -3.364,-7.5 -7.5,-7.5 -4.136,0 -7.5,3.364 -7.5,7.5 0,4.136 3.364,7.5 7.5,7.5 z m 0,-13 c 3.032,0 5.5,2.468 5.5,5.5 0,3.032 -2.468,5.5 -5.5,5.5 -3.032,0 -5.5,-2.468 -5.5,-5.5 0,-3.032 2.468,-5.5 5.5,-5.5 z"
       id="path28"
       inkscape:connector-curvature="0" /><path
       d="m 59.999,18.999 c 0,-0.553 -0.447,-1 -1,-1 H 34.002 c -0.553,0 -1,0.447 -1,1 v 19.999 c 0,0.553 0.447,1 1,1 h 8.98 c 0.008,0 0.016,0.004 0.023,0.004 0.006,0 0.012,-0.004 0.018,-0.004 h 15.959 c 0.006,0 0.012,0.004 0.018,0.004 0.125,0 0.249,-0.03 0.368,-0.078 0.028,-0.012 0.051,-0.029 0.077,-0.043 0.061,-0.03 0.123,-0.054 0.178,-0.098 0.018,-0.014 0.025,-0.035 0.042,-0.05 0.045,-0.041 0.078,-0.089 0.115,-0.138 0.042,-0.056 0.085,-0.108 0.114,-0.17 0.024,-0.051 0.035,-0.105 0.051,-0.161 0.02,-0.07 0.039,-0.139 0.043,-0.212 10e-4,-0.019 0.011,-0.035 0.011,-0.055 z m -24.997,1 h 22.997 v 16.149 l -6.214,-7.777 c -0.026,-0.033 -0.063,-0.049 -0.092,-0.077 -0.025,-0.025 -0.039,-0.058 -0.067,-0.08 -0.022,-0.018 -0.05,-0.021 -0.073,-0.037 -0.061,-0.041 -0.122,-0.071 -0.188,-0.098 -0.057,-0.022 -0.11,-0.042 -0.169,-0.053 -0.065,-0.013 -0.128,-0.016 -0.194,-0.016 -0.063,0 -0.124,0.003 -0.187,0.015 -0.061,0.012 -0.116,0.032 -0.175,0.055 -0.065,0.026 -0.126,0.056 -0.186,0.096 -0.023,0.016 -0.052,0.02 -0.074,0.038 -0.028,0.022 -0.042,0.056 -0.067,0.08 -0.029,0.028 -0.065,0.045 -0.092,0.077 l -3.862,4.834 -1.595,-1.86 c -0.019,-0.021 -0.044,-0.03 -0.063,-0.05 -0.019,-0.018 -0.026,-0.042 -0.046,-0.059 -0.03,-0.026 -0.068,-0.035 -0.101,-0.057 -0.06,-0.04 -0.117,-0.076 -0.183,-0.103 -0.058,-0.022 -0.115,-0.036 -0.176,-0.048 -0.063,-0.013 -0.125,-0.022 -0.19,-0.022 -0.065,0 -0.127,0.01 -0.191,0.022 -0.06,0.012 -0.117,0.025 -0.175,0.049 -0.065,0.025 -0.123,0.062 -0.183,0.102 -0.032,0.021 -0.071,0.03 -0.102,0.057 -0.02,0.017 -0.028,0.041 -0.046,0.059 -0.02,0.02 -0.045,0.028 -0.063,0.05 l -5.703,6.653 h -2.54 z m 5.173,17.999 3.829,-4.468 1.084,1.265 -2.559,3.203 z m 10.828,-7.402 5.914,7.402 H 45.089 Z"
       id="path30"
       inkscape:connector-curvature="0" /><path
       d="m 39.505,26.994 c 1.379,0 2.5,-1.121 2.5,-2.5 0,-1.379 -1.121,-2.5 -2.5,-2.5 -1.379,0 -2.5,1.121 -2.5,2.5 0,1.379 1.121,2.5 2.5,2.5 z m 0,-3 c 0.275,0 0.5,0.225 0.5,0.5 0,0.275 -0.225,0.5 -0.5,0.5 -0.275,0 -0.5,-0.225 -0.5,-0.5 0,-0.275 0.224,-0.5 0.5,-0.5 z"
       id="path32"
       inkscape:connector-curvature="0" /></g></svg>